<!DOCTYPE svg PUBLIC "-//W3C//DTD SVG 1.1//EN" "http://www.w3.org/Graphics/SVG/1.1/DTD/svg11.dtd">
<!-- Uploaded to: SVG Repo, www.svgrepo.com, Transformed by: SVG Repo Mixer Tools -->
<svg fill="#ffffff" version="1.1" id="Capa_1" xmlns="http://www.w3.org/2000/svg" xmlns:xlink="http://www.w3.org/1999/xlink" width="241px" height="241px" viewBox="-11.6 -11.6 73.66 73.66" xml:space="preserve" stroke="#ffffff" transform="matrix(-1, 0, 0, 1, 0, 0)rotate(270)" stroke-width="0.00050455">
<g id="SVGRepo_bgCarrier" stroke-width="0"/>
<g id="SVGRepo_tracerCarrier" stroke-linecap="round" stroke-linejoin="round" stroke="#CCCCCC" stroke-width="0.10090999999999999"/>
<g id="SVGRepo_iconCarrier"> <g> <g> <path d="M40.273,3.111c-2.01,2.008-4.967,5.257-7.907,8.568l-11.539,3.136c-0.099,0.027-0.187,0.083-0.252,0.162l-3.167,3.794 c-0.125,0.149-0.151,0.356-0.069,0.532c0.082,0.176,0.259,0.288,0.453,0.288h6.333c0.276,0,0.5-0.225,0.5-0.5 c0-0.276-0.224-0.5-0.5-0.5H18.86l2.381-2.854l9.915-2.694c-4.131,4.678-7.965,9.154-8.76,10.087h-10.27 c-0.142,0-0.278,0.061-0.373,0.167L8.92,26.463c-0.116,0.132-0.156,0.312-0.106,0.479c0.05,0.167,0.184,0.295,0.352,0.341 l9.108,2.377l3.567,7.52c0.069,0.146,0.206,0.25,0.367,0.277c0.028,0.006,0.057,0.008,0.085,0.008 c0.131,0,0.259-0.053,0.354-0.146l4.333-4.333c0.092-0.092,0.144-0.213,0.146-0.342l0.16-6.425l7.108-5.371l1.564,13.509 c0.021,0.181,0.141,0.337,0.311,0.406c0.168,0.065,0.361,0.039,0.504-0.076l3.834-3.123c0.105-0.088,0.172-0.215,0.183-0.353 l1.319-18.358l8.201-8.201c0.162-0.163,0.191-0.416,0.072-0.612c-0.08-0.136-2.047-3.319-5.283-3.319 C43.484,0.718,41.859,1.523,40.273,3.111z M49.311,4.239l-8.039,8.039c-0.084,0.085-0.139,0.198-0.146,0.318l-1.316,18.326 l-2.959,2.412l-1.561-13.47c-0.021-0.178-0.137-0.332-0.303-0.401c-0.162-0.072-0.354-0.049-0.496,0.061l-8,6.043 c-0.121,0.092-0.195,0.234-0.199,0.387l-0.16,6.467l-3.692,3.69l-3.363-7.088c-0.063-0.134-0.182-0.231-0.325-0.271l-8.542-2.229 l2.139-2.39h10.276c0.146,0,0.285-0.064,0.38-0.177C23.129,23.81,35.555,9.242,40.979,3.819c1.394-1.393,2.779-2.099,4.123-2.099 C47.225,1.718,48.762,3.496,49.311,4.239z"/> <path d="M19.937,39.277l-8.333,8.333c-0.195,0.194-0.195,0.512,0,0.707c0.098,0.098,0.226,0.146,0.354,0.146 s0.256-0.049,0.354-0.146l8.333-8.333c0.195-0.194,0.195-0.512,0-0.707C20.451,39.081,20.132,39.081,19.937,39.277z"/> <path d="M14.104,35.319L1.541,47.882c-0.195,0.194-0.195,0.513,0,0.706c0.098,0.1,0.226,0.146,0.354,0.146 s0.256-0.049,0.354-0.146l12.562-12.563c0.195-0.194,0.195-0.513,0-0.707C14.617,35.124,14.299,35.124,14.104,35.319z"/> <path d="M0.853,42.443l9.458-9.458c0.195-0.195,0.195-0.513,0-0.707c-0.195-0.195-0.512-0.195-0.707,0l-9.458,9.458 c-0.195,0.195-0.195,0.513,0,0.707c0.098,0.099,0.226,0.146,0.354,0.146S0.755,42.54,0.853,42.443z"/> <path d="M21.916,49.588l13.562-13.563c0.194-0.194,0.194-0.513,0-0.707c-0.193-0.194-0.513-0.194-0.707,0L21.208,48.882 c-0.195,0.194-0.195,0.513,0,0.706c0.098,0.1,0.226,0.146,0.354,0.146S21.818,49.686,21.916,49.588z"/> </g> </g> </g>
</svg>